<svg width="30.000000" height="30.000000" viewBox="0 0 30 30" fill="none" xmlns="http://www.w3.org/2000/svg" xmlns:xlink="http://www.w3.org/1999/xlink">
	<desc>
			Created with Pixso.
	</desc>
	<defs>
		<clipPath id="clip19_229">
			<rect id="facebook 1" width="30.000000" height="30.000000" fill="white" fill-opacity="0"/>
		</clipPath>
	</defs>
	<rect id="facebook 1" width="30.000000" height="30.000000" fill="#FFFFFF" fill-opacity="0"/>
	<g clip-path="url(#clip19_229)">
		<path id="Vector" d="M17.34 11.5L17.34 8.85C17.34 7.85 18 7.62 18.47 7.62C18.85 7.62 20.54 7.62 21.12 7.62C21.23 7.62 21.32 7.53 21.32 7.42L21.32 3.44C21.32 3.33 21.24 3.24 21.13 3.24L17.39 3.22C13.03 3.22 12.03 6.49 12.03 8.58L12.03 11.5L9.71 11.5C9.6 11.5 9.51 11.59 9.51 11.7L9.51 15.81C9.51 15.92 9.6 16.01 9.71 16.01L12.03 16.01C12.03 21.23 12.03 27.41 12.03 28.58C12.03 28.7 12.12 28.78 12.23 28.78L17.14 28.78C17.25 28.78 17.34 28.7 17.34 28.58C17.34 27.4 17.34 21.17 17.34 16.01L20.75 16.01C20.85 16.01 20.93 15.93 20.94 15.83L21.37 11.72C21.38 11.6 21.29 11.5 21.17 11.5L17.34 11.5Z" stroke="#FFFFFF" stroke-opacity="1.000000" stroke-width="2.000000"/>
	</g>
</svg>
