<svg width="32.000000" height="32.000000" viewBox="0 0 32 32" fill="none" xmlns="http://www.w3.org/2000/svg" xmlns:xlink="http://www.w3.org/1999/xlink">
	<desc>
			Created with Pixso.
	</desc>
	<defs>
		<clipPath id="clip19_222">
			<rect id="inst 1" width="32.000000" height="32.000000" fill="white" fill-opacity="0"/>
		</clipPath>
	</defs>
	<rect id="inst 1" width="32.000000" height="32.000000" fill="#FFFFFF" fill-opacity="0"/>
	<g clip-path="url(#clip19_222)">
		<path id="Vector" d="M15.99 2.34C12.28 2.34 11.82 2.36 10.36 2.42C8.91 2.49 7.92 2.72 7.05 3.06C6.15 3.41 5.39 3.87 4.63 4.63C3.87 5.39 3.4 6.15 3.06 7.05C2.72 7.92 2.49 8.91 2.42 10.37C2.35 11.82 2.34 12.29 2.34 16C2.34 19.7 2.35 20.17 2.42 21.62C2.49 23.08 2.72 24.07 3.06 24.94C3.4 25.84 3.87 26.6 4.63 27.36C5.39 28.12 6.15 28.58 7.05 28.93C7.92 29.27 8.91 29.5 10.36 29.57C11.82 29.63 12.28 29.65 15.99 29.65C19.7 29.65 20.16 29.63 21.62 29.57C23.07 29.5 24.07 29.27 24.94 28.93C25.83 28.58 26.59 28.12 27.35 27.36C28.11 26.6 28.58 25.84 28.93 24.94C29.27 24.07 29.5 23.08 29.56 21.62C29.63 20.17 29.65 19.7 29.65 16C29.65 12.29 29.63 11.82 29.56 10.37C29.5 8.91 29.27 7.92 28.93 7.05C28.58 6.15 28.11 5.39 27.35 4.63C26.59 3.87 25.83 3.41 24.94 3.06C24.07 2.72 23.07 2.49 21.62 2.42C20.16 2.36 19.7 2.34 15.99 2.34ZM15.99 4.8C19.64 4.8 20.07 4.82 21.51 4.88C22.84 4.94 23.56 5.16 24.04 5.35C24.68 5.6 25.14 5.9 25.61 6.37C26.09 6.85 26.39 7.31 26.64 7.94C26.82 8.42 27.05 9.15 27.11 10.48C27.17 11.92 27.19 12.35 27.19 16C27.19 19.64 27.17 20.07 27.11 21.51C27.05 22.84 26.82 23.57 26.64 24.05C26.39 24.68 26.09 25.14 25.61 25.62C25.14 26.09 24.68 26.39 24.04 26.64C23.56 26.83 22.84 27.05 21.51 27.11C20.07 27.17 19.64 27.19 15.99 27.19C12.35 27.19 11.91 27.17 10.48 27.11C9.14 27.05 8.42 26.83 7.94 26.64C7.3 26.39 6.85 26.09 6.37 25.62C5.89 25.14 5.6 24.68 5.35 24.05C5.16 23.57 4.94 22.84 4.88 21.51C4.81 20.07 4.8 19.64 4.8 16C4.8 12.35 4.81 11.92 4.88 10.48C4.94 9.15 5.16 8.42 5.35 7.94C5.6 7.31 5.89 6.85 6.37 6.37C6.85 5.9 7.3 5.6 7.94 5.35C8.42 5.16 9.14 4.94 10.48 4.88C11.91 4.82 12.35 4.8 15.99 4.8Z" fill="#FFFFFF" fill-opacity="1.000000" fill-rule="nonzero"/>
		<path id="Vector" d="M15.99 20.55C13.48 20.55 11.44 18.51 11.44 15.99C11.44 13.48 13.48 11.44 15.99 11.44C18.5 11.44 20.54 13.48 20.54 15.99C20.54 18.51 18.5 20.55 15.99 20.55ZM15.99 8.98C12.12 8.98 8.98 12.12 8.98 15.99C8.98 19.87 12.12 23.01 15.99 23.01C19.86 23.01 23 19.87 23 15.99C23 12.12 19.86 8.98 15.99 8.98Z" fill="#FFFFFF" fill-opacity="1.000000" fill-rule="nonzero"/>
		<path id="Vector" d="M24.92 8.71C24.92 9.61 24.19 10.35 23.28 10.35C22.38 10.35 21.64 9.61 21.64 8.71C21.64 7.8 22.38 7.07 23.28 7.07C24.19 7.07 24.92 7.8 24.92 8.71Z" fill="#FFFFFF" fill-opacity="1.000000" fill-rule="nonzero"/>
	</g>
</svg>
