<svg width="19.000000" height="19.000000" viewBox="0 0 19 19" fill="none" xmlns="http://www.w3.org/2000/svg" xmlns:xlink="http://www.w3.org/1999/xlink">
	<desc>
			Created with Pixso.
	</desc>
	<defs>
		<clipPath id="clip19_387">
			<rect id="mail 1" width="19.000000" height="19.000000" fill="white" fill-opacity="0"/>
		</clipPath>
	</defs>
	<rect id="mail 1" width="19.000000" height="19.000000" fill="#FFFFFF" fill-opacity="0"/>
	<g clip-path="url(#clip19_387)">
		<path id="Vector" d="M17.32 4.72C17.29 4.67 17.24 4.63 17.19 4.6C17.14 4.57 17.09 4.55 17.03 4.55C16.97 4.54 16.91 4.54 16.86 4.55C16.8 4.57 16.75 4.59 16.7 4.63L9.52 9.99C9.49 10.01 9.46 10.02 9.43 10.02C9.39 10.02 9.36 10.01 9.34 9.99L2.3 4.61C2.25 4.57 2.2 4.54 2.14 4.53C2.08 4.51 2.02 4.51 1.97 4.52C1.91 4.53 1.85 4.54 1.8 4.57C1.75 4.6 1.71 4.64 1.67 4.69C1.64 4.74 1.61 4.79 1.6 4.85C1.58 4.9 1.58 4.96 1.58 5.02C1.59 5.08 1.61 5.13 1.64 5.18C1.67 5.23 1.71 5.28 1.76 5.31L7.29 9.55L1.82 13.67C1.77 13.71 1.73 13.75 1.7 13.8C1.67 13.86 1.65 13.91 1.64 13.97C1.63 14.03 1.64 14.09 1.65 14.14C1.66 14.2 1.69 14.25 1.73 14.3C1.76 14.35 1.8 14.39 1.86 14.42C1.91 14.45 1.96 14.47 2.02 14.48C2.08 14.49 2.14 14.48 2.19 14.47C2.25 14.45 2.31 14.43 2.35 14.39L8.03 10.11L8.8 10.7C8.98 10.84 9.19 10.92 9.42 10.92C9.65 10.92 9.87 10.85 10.05 10.71L10.85 10.11L16.6 14.39C16.64 14.43 16.7 14.45 16.75 14.47C16.81 14.48 16.87 14.49 16.93 14.48C16.98 14.47 17.04 14.45 17.09 14.42C17.14 14.39 17.18 14.35 17.22 14.3C17.25 14.26 17.28 14.2 17.29 14.15C17.31 14.09 17.31 14.03 17.3 13.97C17.3 13.91 17.28 13.86 17.25 13.81C17.22 13.76 17.18 13.71 17.13 13.68L11.6 9.55L17.23 5.34C17.33 5.27 17.39 5.16 17.4 5.05C17.42 4.93 17.39 4.81 17.32 4.72Z" fill="#282828" fill-opacity="1.000000" fill-rule="nonzero"/>
		<path id="Vector" d="M16.77 2.82L2.22 2.82C1.63 2.82 1.06 3.05 0.65 3.47C0.23 3.89 0 4.45 0 5.04L0 13.95C0 14.54 0.23 15.1 0.65 15.52C1.06 15.94 1.63 16.17 2.22 16.17L16.77 16.17C17.36 16.17 17.93 15.94 18.34 15.52C18.76 15.1 19 14.54 19 13.95L19 5.04C19 4.45 18.76 3.89 18.34 3.47C17.93 3.05 17.36 2.82 16.77 2.82ZM18.1 13.95C18.1 14.3 17.96 14.64 17.71 14.89C17.46 15.14 17.12 15.28 16.77 15.28L2.22 15.28C1.87 15.28 1.53 15.14 1.28 14.89C1.03 14.64 0.89 14.3 0.89 13.95L0.89 5.04C0.89 4.69 1.03 4.35 1.28 4.1C1.53 3.85 1.87 3.71 2.22 3.71L16.77 3.71C17.12 3.71 17.46 3.85 17.71 4.1C17.96 4.35 18.1 4.69 18.1 5.04L18.1 13.95Z" fill="#282828" fill-opacity="1.000000" fill-rule="nonzero"/>
		<path id="Vector" d="M2.22 2.82C1.63 2.82 1.06 3.05 0.65 3.47C0.23 3.89 0 4.45 0 5.04L0 13.95C0 14.54 0.23 15.1 0.65 15.52C1.06 15.94 1.63 16.17 2.22 16.17L16.77 16.17C17.36 16.17 17.93 15.94 18.34 15.52C18.76 15.1 19 14.54 19 13.95L19 5.04C19 4.45 18.76 3.89 18.34 3.47C17.93 3.05 17.36 2.82 16.77 2.82L2.22 2.82ZM17.71 14.89C17.46 15.14 17.12 15.28 16.77 15.28L2.22 15.28C1.87 15.28 1.53 15.14 1.28 14.89C1.03 14.64 0.89 14.3 0.89 13.95L0.89 5.04C0.89 4.69 1.03 4.35 1.28 4.1C1.53 3.85 1.87 3.71 2.22 3.71L16.77 3.71C17.12 3.71 17.46 3.85 17.71 4.1C17.96 4.35 18.1 4.69 18.1 5.04L18.1 13.95C18.1 14.3 17.96 14.64 17.71 14.89Z" stroke="#282828" stroke-opacity="1.000000" stroke-width="0.500000"/>
	</g>
</svg>
