<svg width="15.000000" height="15.000000" viewBox="0 0 15 15" fill="none" xmlns="http://www.w3.org/2000/svg" xmlns:xlink="http://www.w3.org/1999/xlink">
	<desc>
			Created with Pixso.
	</desc>
	<defs>
		<clipPath id="clip19_301">
			<rect id="Frame 1" width="15.000000" height="15.000000" fill="white" fill-opacity="0"/>
		</clipPath>
	</defs>
	<g clip-path="url(#clip19_301)">
		<path id="Vector" d="M9.69 4.41C7.99 4.41 6.62 3.92 6.62 3.31C6.62 2.71 7.99 2.21 9.69 2.21C11.4 2.21 12.78 2.71 12.78 3.31C12.78 3.92 11.4 4.41 9.69 4.41Z" stroke="#FFFFFF" stroke-opacity="1.000000" stroke-width="0.600000" stroke-linejoin="round"/>
		<path id="Vector" d="M6.62 3.54C6.62 3.74 6.62 4.65 6.62 4.85C6.62 5.46 7.99 5.96 9.69 5.96C11.4 5.96 12.78 5.46 12.78 4.85C12.78 4.65 12.78 3.74 12.78 3.54" stroke="#FFFFFF" stroke-opacity="1.000000" stroke-width="0.600000" stroke-linejoin="round" stroke-linecap="round"/>
		<path id="Vector" d="M8.28 7.37C8.7 7.45 9.18 7.5 9.69 7.5C11.4 7.5 12.78 7 12.78 6.39C12.78 6.19 12.78 5.28 12.78 5.07" stroke="#FFFFFF" stroke-opacity="1.000000" stroke-width="0.600000" stroke-linejoin="round" stroke-linecap="round"/>
		<path id="Vector" d="M6.62 5.07L6.62 6.01" stroke="#FFFFFF" stroke-opacity="1.000000" stroke-width="0.600000" stroke-linejoin="round" stroke-linecap="round"/>
		<path id="Vector" d="M8.38 8.93C8.78 9 9.22 9.04 9.69 9.04C11.4 9.04 12.78 8.54 12.78 7.93C12.78 7.73 12.78 6.82 12.78 6.62" stroke="#FFFFFF" stroke-opacity="1.000000" stroke-width="0.600000" stroke-linejoin="round" stroke-linecap="round"/>
		<path id="Vector" d="M8.36 10.47C8.77 10.54 9.22 10.58 9.69 10.58C11.4 10.58 12.78 10.08 12.78 9.47C12.78 9.27 12.78 8.36 12.78 8.16" stroke="#FFFFFF" stroke-opacity="1.000000" stroke-width="0.600000" stroke-linejoin="round" stroke-linecap="round"/>
		<path id="Vector" d="M5.29 8.15C3.59 8.15 2.21 7.66 2.21 7.05C2.21 6.45 3.59 5.95 5.29 5.95C7 5.95 8.38 6.45 8.38 7.05C8.38 7.66 7 8.15 5.29 8.15Z" stroke="#FFFFFF" stroke-opacity="1.000000" stroke-width="0.600000" stroke-linejoin="round"/>
		<path id="Vector" d="M2.21 7.28C2.21 7.48 2.21 8.39 2.21 8.59C2.21 9.2 3.59 9.7 5.29 9.7C7 9.7 8.38 9.2 8.38 8.59C8.38 8.39 8.38 7.48 8.38 7.28" stroke="#FFFFFF" stroke-opacity="1.000000" stroke-width="0.600000" stroke-linejoin="round" stroke-linecap="round"/>
		<path id="Vector" d="M2.21 8.81C2.21 9.02 2.21 9.93 2.21 10.13C2.21 10.74 3.59 11.24 5.29 11.24C7 11.24 8.38 10.74 8.38 10.13C8.38 9.93 8.38 9.02 8.38 8.81" stroke="#FFFFFF" stroke-opacity="1.000000" stroke-width="0.600000" stroke-linejoin="round" stroke-linecap="round"/>
		<path id="Vector" d="M2.21 10.36C2.21 10.56 2.21 11.47 2.21 11.67C2.21 12.28 3.59 12.78 5.29 12.78C7 12.78 8.38 12.28 8.38 11.67C8.38 11.47 8.38 10.56 8.38 10.36" stroke="#FFFFFF" stroke-opacity="1.000000" stroke-width="0.600000" stroke-linejoin="round" stroke-linecap="round"/>
	</g>
</svg>
