<svg width="11.000000" height="11.000000" viewBox="0 0 11 11" fill="none" xmlns="http://www.w3.org/2000/svg" xmlns:xlink="http://www.w3.org/1999/xlink">
	<desc>
			Created with Pixso.
	</desc>
	<defs/>
	<path id="Vector" d="M5 10.62C3.88 10.62 2.79 10.29 1.87 9.67C0.94 9.05 0.22 8.18 -0.2 7.15C-0.63 6.12 -0.74 4.99 -0.52 3.9C-0.3 2.81 0.23 1.8 1.02 1.02C1.8 0.23 2.81 -0.3 3.9 -0.52C4.99 -0.74 6.12 -0.63 7.15 -0.2C8.18 0.22 9.05 0.94 9.67 1.87C10.29 2.79 10.62 3.88 10.62 5C10.62 6.49 10.03 7.92 8.97 8.97C7.92 10.03 6.49 10.62 5 10.62ZM5 0.12C4.03 0.12 3.09 0.41 2.29 0.94C1.48 1.48 0.86 2.24 0.49 3.13C0.12 4.02 0.03 5 0.21 5.95C0.4 6.89 0.87 7.76 1.55 8.44C2.23 9.12 3.1 9.59 4.04 9.78C4.99 9.96 5.97 9.87 6.86 9.5C7.75 9.13 8.51 8.51 9.05 7.7C9.58 6.9 9.87 5.96 9.87 5C9.87 3.7 9.36 2.46 8.44 1.55C7.53 0.63 6.29 0.12 5 0.12Z" fill="#FFFFFF" fill-opacity="1.000000" fill-rule="nonzero"/>
	<path id="Vector" d="M6.58 7.12L4.73 5.26C4.69 5.23 4.67 5.18 4.65 5.14C4.63 5.09 4.62 5.04 4.62 5L4.62 2L5.37 2L5.37 4.84L7.12 6.58L6.58 7.12Z" fill="#FFFFFF" fill-opacity="1.000000" fill-rule="nonzero"/>
</svg>
