<svg width="38.000000" height="38.000000" viewBox="0 0 38 38" fill="none" xmlns="http://www.w3.org/2000/svg" xmlns:xlink="http://www.w3.org/1999/xlink">
	<desc>
			Created with Pixso.
	</desc>
	<defs>
		<clipPath id="clip19_362">
			<rect id="vk 1" width="38.000000" height="38.000000" fill="white" fill-opacity="0"/>
		</clipPath>
	</defs>
	<rect id="vk 1" width="38.000000" height="38.000000" fill="#FFFFFF" fill-opacity="0"/>
	<g clip-path="url(#clip19_362)">
		<path id="Vector" d="M34.3 26.12C32.9 23.91 31.25 21.86 29.4 20C29.36 19.96 29.35 19.91 29.35 19.86C29.35 19.8 29.36 19.75 29.4 19.71C30.99 17.53 32.4 15.22 33.61 12.81C33.79 12.46 33.87 12.08 33.85 11.69C33.84 11.3 33.72 10.93 33.52 10.6C33.33 10.27 33.06 9.99 32.73 9.79C32.4 9.6 32.02 9.5 31.64 9.5L28.08 9.5C27.63 9.5 27.19 9.64 26.81 9.89C26.43 10.14 26.14 10.49 25.95 10.91C24.92 13.2 23.68 15.39 22.25 17.45L22.25 11.63C22.25 11.35 22.2 11.07 22.09 10.81C21.98 10.55 21.83 10.32 21.63 10.12C21.43 9.92 21.19 9.76 20.93 9.65C20.67 9.55 20.39 9.49 20.11 9.5L14.91 9.5C14.61 9.5 14.31 9.59 14.05 9.75C13.8 9.91 13.59 10.14 13.45 10.41C13.32 10.68 13.26 10.98 13.28 11.28C13.3 11.58 13.4 11.87 13.58 12.12L14.06 12.78C14.31 13.15 14.45 13.59 14.45 14.03L14.45 18.59C12.88 16.27 11.63 13.75 10.74 11.1C10.58 10.63 10.28 10.22 9.88 9.94C9.47 9.65 8.99 9.5 8.5 9.5L5.59 9.5C5.28 9.5 4.97 9.57 4.7 9.71C4.42 9.85 4.18 10.05 3.99 10.29C3.8 10.53 3.67 10.82 3.6 11.12C3.54 11.42 3.54 11.74 3.62 12.04C5.22 18.84 8.58 24.48 12.84 27.47C13.1 27.66 13.42 27.73 13.73 27.68C14.03 27.63 14.31 27.46 14.49 27.2C14.59 27.07 14.65 26.93 14.69 26.78C14.72 26.62 14.73 26.47 14.7 26.31C14.68 26.16 14.62 26.01 14.54 25.88C14.46 25.74 14.35 25.63 14.22 25.54C10.49 22.93 7.52 17.95 6.02 11.87L8.51 11.87C9.6 15.19 11.25 18.3 13.38 21.07C13.62 21.39 13.96 21.62 14.35 21.73C14.73 21.84 15.14 21.83 15.52 21.69C15.9 21.56 16.24 21.3 16.47 20.97C16.7 20.63 16.83 20.23 16.82 19.83L16.82 14.03C16.82 13.28 16.64 12.53 16.28 11.87L19.84 11.87L19.84 18.32C19.83 18.78 19.98 19.23 20.26 19.6C20.54 19.97 20.93 20.24 21.37 20.36C21.8 20.5 22.27 20.5 22.7 20.35C23.13 20.21 23.49 19.92 23.75 19.54C25.43 17.14 26.87 14.56 28.04 11.87L31.37 11.87C30.24 14.1 28.93 16.23 27.46 18.25C27.09 18.74 26.91 19.35 26.96 19.97C27 20.59 27.26 21.17 27.7 21.61C29.43 23.35 30.99 25.26 32.35 27.31L28.38 27.31C27.15 25.28 25.5 23.53 23.54 22.19C23.25 21.97 22.9 21.85 22.54 21.82C22.17 21.79 21.81 21.87 21.49 22.04C21.16 22.21 20.88 22.46 20.69 22.78C20.49 23.1 20.39 23.47 20.4 23.84L20.4 26.67C20.4 26.83 20.34 26.99 20.23 27.11C20.12 27.24 19.97 27.31 19.8 27.32L18.78 27.32C18.47 27.32 18.16 27.44 17.94 27.67C17.72 27.89 17.59 28.19 17.59 28.51C17.59 28.82 17.72 29.12 17.94 29.35C18.16 29.57 18.47 29.69 18.78 29.69L19.8 29.69C20.2 29.69 20.59 29.61 20.95 29.46C21.31 29.3 21.64 29.08 21.92 28.8C22.19 28.52 22.41 28.18 22.56 27.82C22.7 27.45 22.78 27.06 22.77 26.67L22.77 24.56C24.2 25.64 25.41 26.98 26.33 28.51C26.54 28.86 26.83 29.16 27.18 29.36C27.53 29.57 27.93 29.69 28.34 29.69L32.35 29.69C32.77 29.7 33.17 29.59 33.52 29.38C33.87 29.17 34.16 28.87 34.36 28.51C34.56 28.14 34.66 27.72 34.65 27.31C34.64 26.89 34.52 26.48 34.3 26.12Z" fill="#BC0000" fill-opacity="1.000000" fill-rule="nonzero"/>
	</g>
</svg>
