<svg width="32.000000" height="32.000000" viewBox="0 0 32 32" fill="none" xmlns="http://www.w3.org/2000/svg" xmlns:xlink="http://www.w3.org/1999/xlink">
	<desc>
			Created with Pixso.
	</desc>
	<defs>
		<clipPath id="clip19_219">
			<rect id="vk 1" width="32.000000" height="32.000000" fill="white" fill-opacity="0"/>
		</clipPath>
	</defs>
	<rect id="vk 1" width="32.000000" height="32.000000" fill="#FFFFFF" fill-opacity="0"/>
	<g clip-path="url(#clip19_219)">
		<path id="Vector" d="M28.89 22C27.7 20.13 26.32 18.4 24.76 16.85C24.73 16.81 24.71 16.77 24.71 16.72C24.71 16.67 24.73 16.63 24.76 16.6C26.1 14.76 27.29 12.82 28.31 10.79C28.45 10.49 28.52 10.17 28.51 9.84C28.49 9.52 28.4 9.2 28.23 8.93C28.07 8.64 27.84 8.41 27.56 8.25C27.28 8.08 26.97 8 26.65 8L23.65 8C23.26 8 22.89 8.12 22.58 8.33C22.26 8.54 22.01 8.84 21.86 9.18C20.98 11.11 19.94 12.96 18.74 14.7L18.74 9.8C18.74 9.56 18.69 9.32 18.6 9.1C18.51 8.89 18.38 8.69 18.21 8.52C18.04 8.35 17.84 8.22 17.63 8.13C17.41 8.04 17.17 7.99 16.93 8L12.56 8C12.3 8 12.05 8.07 11.83 8.21C11.62 8.34 11.44 8.53 11.33 8.76C11.21 8.99 11.16 9.24 11.18 9.5C11.2 9.75 11.29 10 11.43 10.21L11.84 10.77C12.05 11.07 12.16 11.44 12.17 11.82L12.17 15.66C10.85 13.7 9.8 11.58 9.05 9.35C8.91 8.95 8.65 8.61 8.32 8.37C7.98 8.13 7.57 8 7.16 8L4.7 8C4.44 8 4.19 8.06 3.96 8.18C3.72 8.29 3.52 8.46 3.36 8.66C3.2 8.87 3.09 9.11 3.03 9.36C2.98 9.62 2.98 9.88 3.05 10.14C4.4 15.87 7.22 20.62 10.82 23.14C11.03 23.29 11.3 23.35 11.56 23.31C11.82 23.26 12.05 23.12 12.21 22.91C12.28 22.8 12.34 22.68 12.37 22.55C12.4 22.42 12.4 22.29 12.38 22.16C12.36 22.03 12.31 21.9 12.24 21.79C12.17 21.68 12.08 21.58 11.98 21.51C8.84 19.31 6.34 15.12 5.07 10L7.17 10C8.09 12.79 9.47 15.41 11.27 17.75C11.47 18.01 11.76 18.2 12.08 18.3C12.4 18.39 12.75 18.38 13.07 18.27C13.39 18.15 13.67 17.94 13.87 17.66C14.07 17.38 14.17 17.04 14.17 16.7L14.17 11.82C14.17 11.18 14.01 10.55 13.71 10L16.7 10L16.7 15.43C16.7 15.81 16.83 16.19 17.06 16.5C17.29 16.81 17.62 17.04 18 17.15C18.36 17.27 18.75 17.26 19.11 17.14C19.47 17.01 19.78 16.77 20 16.45C21.42 14.43 22.63 12.26 23.62 10L26.42 10C25.46 11.87 24.36 13.66 23.13 15.37C22.81 15.78 22.66 16.3 22.7 16.82C22.74 17.34 22.96 17.83 23.33 18.2C24.78 19.66 26.1 21.27 27.25 23L23.9 23C22.86 21.28 21.47 19.81 19.83 18.69C19.58 18.5 19.28 18.4 18.98 18.37C18.67 18.35 18.37 18.41 18.1 18.56C17.82 18.7 17.58 18.92 17.42 19.18C17.26 19.45 17.17 19.76 17.17 20.08L17.17 22.46C17.18 22.59 17.13 22.73 17.04 22.83C16.94 22.94 16.81 23 16.67 23.01L15.82 23.01C15.55 23.01 15.3 23.11 15.11 23.3C14.92 23.49 14.82 23.74 14.82 24.01C14.82 24.27 14.92 24.52 15.11 24.71C15.3 24.9 15.55 25.01 15.82 25.01L16.67 25.01C17.01 25 17.33 24.93 17.64 24.8C17.95 24.67 18.22 24.49 18.45 24.25C18.69 24.01 18.87 23.73 18.99 23.42C19.12 23.12 19.18 22.79 19.17 22.46L19.17 20.69C20.38 21.59 21.4 22.72 22.17 24.01C22.35 24.3 22.59 24.55 22.89 24.73C23.18 24.9 23.52 25 23.87 25.01L27.25 25.01C27.59 25.01 27.93 24.91 28.23 24.74C28.53 24.56 28.77 24.31 28.93 24.01C29.1 23.7 29.19 23.35 29.18 22.99C29.17 22.64 29.07 22.3 28.89 22Z" fill="#FFFFFF" fill-opacity="1.000000" fill-rule="nonzero"/>
	</g>
</svg>
