<svg width="19.000000" height="19.000000" viewBox="0 0 19 19" fill="none" xmlns="http://www.w3.org/2000/svg" xmlns:xlink="http://www.w3.org/1999/xlink">
	<desc>
			Created with Pixso.
	</desc>
	<defs>
		<clipPath id="clip19_374">
			<rect id="wh 1" width="19.000000" height="19.000000" fill="white" fill-opacity="0"/>
		</clipPath>
	</defs>
	<rect id="wh 1" width="19.000000" height="19.000000" fill="#FFFFFF" fill-opacity="0"/>
	<g clip-path="url(#clip19_374)">
		<path id="Vector" d="M18.77 9.37C18.77 10.98 18.42 12.4 17.71 13.71C17.05 14.96 16.13 15.99 14.98 16.81C13.97 17.53 12.86 18.02 11.64 18.27C10.3 18.55 8.96 18.52 7.62 18.2C6.92 18.03 6.24 17.77 5.61 17.42C5.5 17.36 5.41 17.36 5.29 17.4C3.9 17.84 2.5 18.29 1.1 18.74C0.94 18.79 0.78 18.84 0.62 18.89C0.51 18.94 0.5 18.89 0.53 18.8C0.7 18.32 0.86 17.84 1.02 17.36C1.37 16.32 1.72 15.28 2.07 14.24C2.12 14.1 2.05 14.01 2 13.91C1.56 13.15 1.25 12.35 1.05 11.49C0.63 9.65 0.78 7.85 1.49 6.1C1.9 5.09 2.48 4.18 3.22 3.38C4.17 2.36 5.3 1.61 6.6 1.1C7.81 0.63 9.06 0.45 10.36 0.53C12.13 0.63 13.74 1.22 15.15 2.29C16.98 3.67 18.13 5.48 18.59 7.74C18.71 8.31 18.76 8.89 18.77 9.37ZM9.74 2.03C9.39 2.01 8.99 2.05 8.58 2.11C8.42 2.14 8.27 2.17 8.11 2.21C5.7 2.82 3.97 4.26 2.95 6.53C2.36 7.84 2.2 9.22 2.42 10.64C2.59 11.76 3.01 12.79 3.66 13.73C3.73 13.83 3.74 13.92 3.7 14.03C3.42 14.84 3.16 15.65 2.89 16.46C2.87 16.5 2.83 16.55 2.87 16.59C2.91 16.64 2.96 16.59 3 16.58C3.82 16.32 4.63 16.06 5.44 15.79C5.62 15.73 5.75 15.76 5.91 15.85C7.74 16.95 9.68 17.24 11.74 16.69C13.3 16.28 14.58 15.43 15.6 14.17C16.58 12.96 17.13 11.57 17.24 10.02C17.33 8.83 17.14 7.67 16.66 6.57C16.07 5.18 15.14 4.06 13.88 3.23C12.65 2.43 11.28 2.01 9.74 2.03Z" fill="#282828" fill-opacity="1.000000" fill-rule="nonzero"/>
		<path id="Vector" d="M5.31 7.33C5.32 6.49 5.65 5.81 6.29 5.27C6.47 5.12 6.69 5.06 6.93 5.1C7.03 5.11 7.14 5.13 7.24 5.12C7.49 5.1 7.64 5.24 7.71 5.45C7.95 6.07 8.18 6.7 8.42 7.32C8.46 7.44 8.45 7.55 8.39 7.66C8.25 7.96 8.02 8.19 7.79 8.43C7.59 8.63 7.58 8.7 7.71 8.95C8.38 10.15 9.29 11.08 10.56 11.65C10.63 11.68 10.68 11.72 10.74 11.75C10.9 11.83 11.05 11.82 11.18 11.68C11.44 11.42 11.68 11.14 11.91 10.85C12.1 10.62 12.18 10.59 12.44 10.7C13.06 10.99 13.65 11.33 14.26 11.65C14.46 11.76 14.48 11.91 14.45 12.18C14.33 13.28 13.49 13.78 12.53 13.94C12.2 14 11.9 13.97 11.6 13.87C10.7 13.59 9.83 13.26 9.04 12.75C8.31 12.27 7.68 11.67 7.12 10.99C6.59 10.33 6.11 9.63 5.71 8.87C5.49 8.43 5.31 7.76 5.31 7.33Z" fill="#282828" fill-opacity="1.000000" fill-rule="nonzero"/>
	</g>
</svg>
